<svg width="44" height="40" viewBox="0 0 44 40" fill="none" xmlns="http://www.w3.org/2000/svg">
<path d="M32.9894 0H11.0106C4.93852 0 0 4.68895 0 10.4542V29.5458C0 35.311 4.93852 40 11.0106 40H32.9894C39.0615 40 44 35.311 44 29.5458V10.4542C44 4.68895 39.0615 0 32.9894 0ZM3.88373 10.4542C3.88373 6.72262 7.08042 3.68747 11.0106 3.68747H32.9894C36.9196 3.68747 40.1163 6.72262 40.1163 10.4542V29.5458C40.1163 33.2774 36.9196 36.3125 32.9894 36.3125H11.0106C7.08042 36.3125 3.88373 33.2774 3.88373 29.5458V10.4542Z" fill="black"/>
<path d="M21.9987 29.7267C27.6464 29.7267 32.2414 25.3639 32.2414 20.0015C32.2414 14.6392 27.6464 10.2764 21.9987 10.2764C16.3509 10.2764 11.7559 14.6392 11.7559 20.0015C11.7559 25.3639 16.3509 29.7267 21.9987 29.7267ZM21.9987 13.9658C25.5045 13.9658 28.3557 16.6728 28.3557 20.0015C28.3557 23.3302 25.5045 26.0373 21.9987 26.0373C18.4928 26.0373 15.6417 23.3302 15.6417 20.0015C15.6417 16.6728 18.4928 13.9658 21.9987 13.9658Z" fill="black"/>
<path d="M33.1917 11.846C34.7132 11.846 35.9519 10.6699 35.9519 9.22524C35.9519 7.78057 34.7132 6.60449 33.1917 6.60449C31.6701 6.60449 30.4314 7.78057 30.4314 9.22524C30.4314 10.6699 31.6701 11.846 33.1917 11.846Z" fill="black"/>
</svg>
